<?xml version="1.0" encoding="utf-8"?>
<!-- Generator: Adobe Illustrator 19.0.0, SVG Export Plug-In . SVG Version: 6.00 Build 0)  -->
<svg version="1.1" id="Layer_1" xmlns="http://www.w3.org/2000/svg" xmlns:xlink="http://www.w3.org/1999/xlink" x="0px" y="0px"
	 viewBox="0 0 500 500" style="enable-background:new 0 0 500 500;" xml:space="preserve">
<style type="text/css">
	.st0{fill:#5FBA46;}
	.st1{fill:#231F20;}
</style>
<g id="XMLID_1_">
	<path id="XMLID_5_" class="st0" d="M67.5,373.7h22.7c4.9,0,8.6,1.2,11.1,3.5c2.5,2.4,3.7,5.7,3.7,10c0,4.5-1.3,8-4,10.5
		c-2.7,2.5-6.8,3.8-12.3,3.8h-7.5v16.4H67.5V373.7z M81.2,392.6h3.3c2.6,0,4.5-0.5,5.5-1.4c1.1-0.9,1.6-2.1,1.6-3.5
		c0-1.4-0.5-2.6-1.4-3.5c-0.9-1-2.7-1.4-5.2-1.4h-3.9V392.6z"/>
	<path id="XMLID_6_" class="st0" d="M111.5,385.9H123v5.2c1.1-2.3,2.2-3.8,3.4-4.7c1.2-0.9,2.6-1.3,4.4-1.3c1.8,0,3.8,0.6,5.9,1.7
		l-3.8,8.7c-1.4-0.6-2.6-0.9-3.4-0.9c-1.6,0-2.9,0.7-3.7,2c-1.3,1.9-1.9,5.4-1.9,10.5v10.7h-12.3V385.9z"/>
	<path id="XMLID_9_" class="st0" d="M139.2,373.7h12.3v8.4h-12.3V373.7z M139.2,385.9h12.3v32h-12.3V385.9z"/>
	<polygon id="XMLID_10_" class="st0" points="155.7,385.9 168.5,385.9 174.7,406.2 181.1,385.9 193.5,385.9 179.9,417.9 169,417.9 	
		"/>
	<path id="XMLID_13_" class="st0" d="M208.2,396.3l-11.7-1.2c0.4-2.1,1.1-3.7,1.9-4.8c0.8-1.2,2-2.2,3.6-3.1
		c1.1-0.6,2.7-1.1,4.6-1.4c2-0.3,4.1-0.5,6.4-0.5c3.7,0,6.6,0.2,8.9,0.6c2.2,0.4,4.1,1.3,5.6,2.6c1,0.9,1.9,2.2,2.5,3.8
		c0.6,1.7,0.9,3.2,0.9,4.7v14.1c0,1.5,0.1,2.7,0.3,3.5c0.2,0.9,0.6,1.9,1.3,3.3h-11.5c-0.5-0.8-0.8-1.5-0.9-1.9
		c-0.1-0.4-0.3-1.1-0.4-2c-1.6,1.5-3.2,2.7-4.8,3.3c-2.2,0.9-4.7,1.3-7.6,1.3c-3.8,0-6.7-0.9-8.7-2.7c-2-1.8-3-3.9-3-6.5
		c0-2.4,0.7-4.4,2.1-6c1.4-1.6,4.1-2.7,7.9-3.5c4.6-0.9,7.6-1.6,9-1.9c1.4-0.4,2.8-0.9,4.3-1.5c0-1.5-0.3-2.6-0.9-3.2
		c-0.6-0.6-1.7-0.9-3.3-0.9c-2,0-3.5,0.3-4.5,1C209.4,394,208.7,394.9,208.2,396.3z M218.9,402.7c-1.7,0.6-3.4,1.1-5.3,1.6
		c-2.5,0.7-4.1,1.3-4.7,2c-0.7,0.7-1,1.4-1,2.3c0,1,0.3,1.8,1,2.4c0.7,0.6,1.7,0.9,3,0.9c1.4,0,2.6-0.3,3.8-1c1.2-0.7,2-1.5,2.5-2.4
		c0.5-1,0.7-2.2,0.7-3.7V402.7z"/>
	<path id="XMLID_14_" class="st0" d="M252,373.7v12.2h6.8v9H252v11.3c0,1.4,0.1,2.3,0.4,2.7c0.4,0.7,1.1,1,2.1,1
		c0.9,0,2.2-0.3,3.8-0.8l0.9,8.5c-3,0.7-5.9,1-8.5,1c-3.1,0-5.3-0.4-6.8-1.2c-1.4-0.8-2.5-2-3.2-3.6c-0.7-1.6-1-4.2-1-7.8v-11.3
		h-4.5v-9h4.5V380L252,373.7z"/>
	<path id="XMLID_18_" class="st0" d="M265.4,373.7H291c4.3,0,7.5,1.1,9.8,3.2c2.3,2.1,3.4,4.7,3.4,7.8c0,2.6-0.8,4.9-2.4,6.7
		c-1.1,1.2-2.7,2.2-4.8,3c3.2,0.8,5.5,2.1,7,3.9c1.5,1.9,2.2,4.2,2.2,7c0,2.3-0.5,4.4-1.6,6.2c-1.1,1.8-2.5,3.3-4.4,4.3
		c-1.1,0.7-2.9,1.1-5.2,1.4c-3.1,0.4-5.1,0.6-6.1,0.6h-23.6V373.7z M279.2,391.1h5.9c2.1,0,3.6-0.4,4.4-1.1c0.8-0.7,1.3-1.8,1.3-3.2
		c0-1.3-0.4-2.3-1.3-3c-0.8-0.7-2.3-1.1-4.4-1.1h-6V391.1z M279.2,408.4h7c2.4,0,4-0.4,5-1.3c1-0.8,1.4-2,1.4-3.4
		c0-1.3-0.5-2.4-1.4-3.1c-1-0.8-2.6-1.2-5-1.2h-6.9V408.4z"/>
	<path id="XMLID_21_" class="st0" d="M323.8,396.3l-11.7-1.2c0.4-2.1,1.1-3.7,1.9-4.8c0.8-1.2,2-2.2,3.6-3.1
		c1.1-0.6,2.7-1.1,4.6-1.4c2-0.3,4.1-0.5,6.4-0.5c3.7,0,6.6,0.2,8.9,0.6c2.2,0.4,4.1,1.3,5.6,2.6c1,0.9,1.9,2.2,2.5,3.8
		c0.6,1.7,0.9,3.2,0.9,4.7v14.1c0,1.5,0.1,2.7,0.3,3.5c0.2,0.9,0.6,1.9,1.3,3.3h-11.5c-0.5-0.8-0.8-1.5-0.9-1.9
		c-0.1-0.4-0.3-1.1-0.4-2c-1.6,1.5-3.2,2.7-4.8,3.3c-2.2,0.9-4.7,1.3-7.6,1.3c-3.8,0-6.7-0.9-8.7-2.7c-2-1.8-3-3.9-3-6.5
		c0-2.4,0.7-4.4,2.1-6c1.4-1.6,4.1-2.7,7.9-3.5c4.6-0.9,7.6-1.6,9-1.9c1.4-0.4,2.8-0.9,4.3-1.5c0-1.5-0.3-2.6-0.9-3.2
		c-0.6-0.6-1.7-0.9-3.3-0.9c-2,0-3.5,0.3-4.5,1C324.9,394,324.3,394.9,323.8,396.3z M334.5,402.7c-1.7,0.6-3.4,1.1-5.3,1.6
		c-2.5,0.7-4.1,1.3-4.7,2c-0.7,0.7-1,1.4-1,2.3c0,1,0.3,1.8,1,2.4c0.7,0.6,1.7,0.9,3,0.9c1.4,0,2.6-0.3,3.8-1c1.2-0.7,2-1.5,2.5-2.4
		c0.5-1,0.7-2.2,0.7-3.7V402.7z"/>
	<path id="XMLID_22_" class="st0" d="M353.8,385.9h11.4v5.2c1.7-2.1,3.4-3.7,5.2-4.6c1.7-0.9,3.9-1.4,6.4-1.4c3.4,0,6.1,1,8,3
		c1.9,2,2.9,5.1,2.9,9.4v20.4h-12.3v-17.6c0-2-0.4-3.4-1.1-4.3c-0.7-0.8-1.8-1.3-3.1-1.3c-1.5,0-2.7,0.6-3.6,1.7
		c-0.9,1.1-1.4,3.1-1.4,6.1v15.4h-12.3V385.9z"/>
	<polygon id="XMLID_23_" class="st0" points="395,373.7 407.6,373.7 407.6,396.6 416.7,385.9 431.8,385.9 420.3,397.1 432.5,417.9 
		418.7,417.9 412.2,405.1 407.6,409.6 407.6,417.9 395,417.9 	"/>
	<rect id="XMLID_24_" x="112.7" y="244.3" class="st1" width="104.6" height="104.6"/>
	<path id="XMLID_27_" class="st0" d="M112.8,81.3v130.2h27.7c72.8,0,109.7,36.9,109.7,109.7v27.7h130.2V81.3H112.8z M325.1,136.7
		L325.1,136.7c0,35.5,0,121.4,0,156.9c-10,0-11.7,0-21.3,0c-9.2-77.6-58-126.4-135.6-135.6c0-9.7,0-11.4,0-21.4
		C203.7,136.7,289.6,136.7,325.1,136.7z"/>
</g>
</svg>
